<!-- Generated by IcoMoon.io -->
<svg version="1.1" xmlns="http://www.w3.org/2000/svg" width="768" height="768" viewBox="0 0 768 768">
<title></title>
<g id="icomoon-ignore">
</g>
<path fill="#000" d="M404.626 760.979c-22.789-0.010-45.124-1.925-66.862-5.594l2.351 0.328c-190.791-32.17-334.322-196.151-334.322-393.656 0-22.625 1.883-44.811 5.503-66.408l-0.323 2.336c20.197-123.018 94.637-225.35 197.468-283.131l1.992-1.029c7.46-4.244 16.388-6.745 25.901-6.745 11.799 0 22.7 3.848 31.515 10.358l-0.145-0.102c13.862 9.577 22.829 25.382 22.829 43.282 0 3.395-0.323 6.714-0.939 9.929l0.053-0.329-28.526-2.194 26.99 4.828c-3.783 19.14-5.948 41.147-5.948 63.659 0 149.056 94.906 275.947 227.587 323.539l2.398 0.751c33.914 12.159 73.043 19.188 113.813 19.188 25.516 0 50.388-2.752 74.337-7.978l-2.293 0.42c3.1-0.637 6.663-1.002 10.311-1.002 29.57 0 53.54 23.971 53.54 53.54 0 8.594-2.025 16.715-5.623 23.913l0.14-0.31c-68.211 127.049-200.009 212.057-351.695 212.407h-0.049zM234.13 63.415c-104.805 60.244-174.245 171.566-174.245 299.107 0 75.277 24.19 144.904 65.221 201.532l-0.69-1c63.103 87.443 164.719 143.693 279.474 143.693 129.865 0 242.904-72.040 301.334-178.338l0.897-1.781c-24.039 5.060-51.661 7.958-79.96 7.958-47.193 0-92.503-8.057-134.632-22.871l2.842 0.871c-156.78-56.142-266.926-203.433-266.926-376.451 0-25.712 2.432-50.855 7.080-75.213l-0.396 2.494z"></path>
</svg>
