<!-- Generated by IcoMoon.io -->
<svg version="1.1" xmlns="http://www.w3.org/2000/svg" width="659" height="768" viewBox="0 0 659 768">
<title></title>
<g id="icomoon-ignore">
</g>
<path fill="#000" d="M416.143 533.143v90.428c0 19.286-5.572 28.714-16.715 28.714-6.428 0-12.857-3-19.286-9.428v-129c6.428-6.428 12.857-9.428 19.286-9.428 11.143 0 16.715 9.857 16.715 28.714zM561 533.572v19.714h-38.572v-19.715c0-19.285 6.428-29.143 19.286-29.143s19.285 9.857 19.285 29.143zM147 440.143h45.857v-40.285h-133.714v40.285h45v243.857h42.857v-243.857zM270.428 684h38.143v-211.715h-38.143v162c-8.572 12-16.715 18-24.428 18-5.143 0-8.143-3-9-9-0.428-1.286-0.428-6-0.428-15v-156h-38.143v167.572c0 15 1.285 24.857 3.428 31.286 3.428 10.714 12.428 15.857 24.857 15.857 13.714 0 28.286-8.572 43.714-26.143v23.143zM454.286 620.572v-84.428c0-19.715-0.857-33.857-3.857-42.428-4.714-15.857-15.428-24-30.428-24-14.143 0-27.428 7.714-39.857 23.143v-93h-38.143v284.143h38.143v-20.572c12.857 15.857 26.143 23.572 39.857 23.572 15 0 25.715-8.143 30.428-23.572 3-9 3.857-23.143 3.857-42.857zM599.143 616.286v-5.572h-39c0 15.428-0.428 24-0.857 26.143-2.143 10.285-7.714 15.428-17.143 15.428-13.285 0-19.715-9.857-19.715-29.572v-37.285h76.715v-44.143c0-22.715-3.857-39-11.572-49.715-11.143-14.572-26.143-21.857-45.428-21.857-19.715 0-34.715 7.286-45.857 21.857-8.143 10.714-12 27-12 49.715v74.143c0 22.715 4.286 39.428 12.428 49.715 11.143 14.572 26.143 21.857 46.286 21.857s36-7.714 46.285-22.715c4.714-6.857 8.143-14.572 9-23.143 0.857-3.857 0.857-12.428 0.857-24.857zM338.572 225v-90c0-19.715-5.572-29.572-18.428-29.572-12.428 0-18.428 9.857-18.428 29.572v90c0 19.714 6 30 18.428 30 12.857 0 18.428-10.286 18.428-30zM646.714 546.857c0 49.285-0.428 102-11.143 150-8.143 33.857-35.572 58.715-68.572 62.143-78.857 9-158.572 9-237.857 9s-159 0-237.857-9c-33-3.428-60.857-28.285-68.572-62.143-11.143-48-11.143-100.715-11.143-150v0c0-49.715 0.428-102 11.143-150 8.143-33.857 35.572-58.714 69-62.572 78.428-8.572 158.143-8.572 237.428-8.572s159 0 237.857 8.572c33 3.857 60.857 28.714 68.572 62.572 11.143 48 11.143 100.285 11.143 150zM219 0h43.714l-51.857 171v116.143h-42.857v-116.143c-3.857-21-12.428-51-26.143-90.857-9.428-26.572-18.857-53.572-27.857-80.143h45.428l30.428 112.715zM377.572 142.714v75c0 22.715-3.857 39.857-12 50.572-10.714 14.572-25.714 21.857-45.428 21.857-19.286 0-34.286-7.285-45-21.857-8.143-11.143-12-27.857-12-50.572v-75c0-22.715 3.857-39.428 12-50.143 10.714-14.572 25.714-21.857 45-21.857 19.714 0 34.714 7.285 45.428 21.857 8.143 10.715 12 27.428 12 50.143zM521.143 73.285v213.857h-39v-23.572c-15.428 18-30 26.572-44.143 26.572-12.428 0-21.428-5.143-25.285-15.857-2.143-6.428-3.428-16.714-3.428-32.143v-168.857h39v157.286c0 9 0 14.143 0.428 15 0.857 6 3.857 9.428 9 9.428 7.714 0 15.857-6 24.428-18.428v-163.286h39z"></path>
</svg>
